<svg id="Groupe_39733" data-name="Groupe 39733" xmlns="http://www.w3.org/2000/svg" width="215.694" height="284.46" viewBox="0 0 215.694 284.46">
  <circle id="Ellipse_313" data-name="Ellipse 313" cx="4.689" cy="4.689" r="4.689" transform="translate(0)" fill="#f1a501"/>
  <circle id="Ellipse_314" data-name="Ellipse 314" cx="4.689" cy="4.689" r="4.689" transform="translate(68.772)" fill="#f1a501"/>
  <circle id="Ellipse_315" data-name="Ellipse 315" cx="4.689" cy="4.689" r="4.689" transform="translate(137.544)" fill="#f1a501"/>
  <circle id="Ellipse_316" data-name="Ellipse 316" cx="4.689" cy="4.689" r="4.689" transform="translate(206.316)" fill="#f1a501"/>
  <circle id="Ellipse_317" data-name="Ellipse 317" cx="4.689" cy="4.689" r="4.689" transform="translate(0 68.771)" fill="#f1a501"/>
  <circle id="Ellipse_318" data-name="Ellipse 318" cx="4.689" cy="4.689" r="4.689" transform="translate(68.772 68.771)" fill="#f1a501"/>
  <circle id="Ellipse_319" data-name="Ellipse 319" cx="4.689" cy="4.689" r="4.689" transform="translate(137.544 68.771)" fill="#f1a501"/>
  <circle id="Ellipse_320" data-name="Ellipse 320" cx="4.689" cy="4.689" r="4.689" transform="translate(206.316 68.771)" fill="#f1a501"/>
  <circle id="Ellipse_321" data-name="Ellipse 321" cx="4.689" cy="4.689" r="4.689" transform="translate(0 137.54)" fill="#f1a501"/>
  <circle id="Ellipse_322" data-name="Ellipse 322" cx="4.689" cy="4.689" r="4.689" transform="translate(68.772 137.54)" fill="#f1a501"/>
  <circle id="Ellipse_323" data-name="Ellipse 323" cx="4.689" cy="4.689" r="4.689" transform="translate(137.544 137.54)" fill="#f1a501"/>
  <circle id="Ellipse_324" data-name="Ellipse 324" cx="4.689" cy="4.689" r="4.689" transform="translate(206.316 137.54)" fill="#f1a501"/>
  <circle id="Ellipse_325" data-name="Ellipse 325" cx="4.689" cy="4.689" r="4.689" transform="translate(0 206.31)" fill="#f1a501"/>
  <circle id="Ellipse_326" data-name="Ellipse 326" cx="4.689" cy="4.689" r="4.689" transform="translate(68.772 206.31)" fill="#f1a501"/>
  <circle id="Ellipse_327" data-name="Ellipse 327" cx="4.689" cy="4.689" r="4.689" transform="translate(137.544 206.31)" fill="#f1a501"/>
  <circle id="Ellipse_328" data-name="Ellipse 328" cx="4.689" cy="4.689" r="4.689" transform="translate(206.316 206.31)" fill="#f1a501"/>
  <circle id="Ellipse_329" data-name="Ellipse 329" cx="4.689" cy="4.689" r="4.689" transform="translate(0 275.082)" fill="#f1a501"/>
  <circle id="Ellipse_330" data-name="Ellipse 330" cx="4.689" cy="4.689" r="4.689" transform="translate(68.772 275.082)" fill="#f1a501"/>
  <circle id="Ellipse_331" data-name="Ellipse 331" cx="4.689" cy="4.689" r="4.689" transform="translate(137.544 275.082)" fill="#f1a501"/>
  <circle id="Ellipse_332" data-name="Ellipse 332" cx="4.689" cy="4.689" r="4.689" transform="translate(206.316 275.082)" fill="#f1a501"/>
</svg>
