<svg xmlns="http://www.w3.org/2000/svg" width="36.854" height="58.375" viewBox="0 0 36.854 58.375">
  <g id="Groupe_47552" data-name="Groupe 47552" transform="translate(-192.228 -178.206)">
    <g id="Groupe_47486" data-name="Groupe 47486" transform="translate(192.228 178.206)">
      <g id="Groupe_47484" data-name="Groupe 47484" transform="translate(0 39.948)">
        <path id="Tracé_37122" data-name="Tracé 37122" d="M192.228,1120.991a18.426,18.426,0,0,1,36.852,0h-3.25a15.177,15.177,0,1,0-30.354,0Z" transform="translate(-192.228 -1102.565)" fill="#5930ef"/>
      </g>
      <g id="Groupe_47485" data-name="Groupe 47485" transform="translate(7.167 47.115)">
        <path id="Tracé_37123" data-name="Tracé 37123" d="M200.035,1121.631a11.259,11.259,0,0,1,22.518,0H219.3a8.01,8.01,0,1,0-16.02,0Z" transform="translate(-200.035 -1110.372)" fill="#5930ef"/>
      </g>
      <path id="Tracé_37124" data-name="Tracé 37124" d="M210.655,1059.048a18.447,18.447,0,0,0-18.426,18.426v2.671a1.625,1.625,0,0,0,3.25,0v-2.671a15.177,15.177,0,1,1,15.176,15.176H195.479v-3.917h15.176a11.259,11.259,0,1,0-11.259-11.259v2.671a1.625,1.625,0,0,0,3.25,0v-2.671a8.01,8.01,0,1,1,8.01,8.01h-16.8a1.626,1.626,0,0,0-1.625,1.625v7.167a1.625,1.625,0,0,0,1.625,1.625h16.8a18.426,18.426,0,1,0,0-36.852Z" transform="translate(-192.228 -1059.048)" fill="#5930ef"/>
    </g>
  </g>
</svg>
